REM DIRINDEX 1\2,1\3,1\4,1\5,1\6
REM DIRNAME folder01,folder02,folder03,folder04,folder05,folder06
TITLE ""
FILE "DISC3Track01.mp3" MP3
  TRACK 01 AUDIO
    TITLE "0:"
    INDEX 01 00:00:00
  TRACK 02 AUDIO
    TITLE "2:cjc129_2041"
    INDEX 01 00:00:03
  TRACK 03 AUDIO
    TITLE "0:"
    INDEX 01 00:01:42
  TRACK 04 AUDIO
    TITLE "2:cjc129_2042"
    INDEX 01 00:08:46
  TRACK 05 AUDIO
    TITLE "0:"
    INDEX 01 00:13:16
  TRACK 06 AUDIO
    TITLE "2:cjc129_2043"
    INDEX 01 00:13:65
  TRACK 07 AUDIO
    TITLE "0:"
    INDEX 01 00:20:24
  TRACK 08 AUDIO
    TITLE "2:cjc129_2044"
    INDEX 01 00:21:39
  TRACK 09 AUDIO
    TITLE "0:"
    INDEX 01 00:25:72
  TRACK 10 AUDIO
    TITLE "3:cjc129_2045"
    INDEX 01 00:27:08
  TRACK 11 AUDIO
    TITLE "0:"
    INDEX 01 00:28:27
  TRACK 12 AUDIO
    TITLE "5:cjc129_2046"
    INDEX 01 00:28:57
  TRACK 13 AUDIO
    TITLE "0:"
    INDEX 01 00:32:21
  TRACK 14 AUDIO
    TITLE "4:cjc129_2047"
    INDEX 01 00:33:13
  TRACK 15 AUDIO
    TITLE "0:"
    INDEX 01 00:34:30
  TRACK 16 AUDIO
    TITLE "6:cjc129_2048"
    INDEX 01 00:34:61
  TRACK 17 AUDIO
    TITLE "0:"
    INDEX 01 00:39:43
  TRACK 18 AUDIO
    TITLE "3:cjc129_2049"
    INDEX 01 00:41:18
  TRACK 19 AUDIO
    TITLE "0:"
    INDEX 01 00:42:31
  TRACK 20 AUDIO
    TITLE "5:cjc129_2050"
    INDEX 01 00:43:74
  TRACK 21 AUDIO
    TITLE "0:"
    INDEX 01 00:48:02
  TRACK 22 AUDIO
    TITLE "4:cjc129_2051"
    INDEX 01 00:48:69
  TRACK 23 AUDIO
    TITLE "0:"
    INDEX 01 00:50:03
  TRACK 24 AUDIO
    TITLE "6:cjc129_2052"
    INDEX 01 00:50:37
  TRACK 25 AUDIO
    TITLE "0:"
    INDEX 01 00:54:32
  TRACK 26 AUDIO
    TITLE "3:cjc129_2053"
    INDEX 01 00:56:06
  TRACK 27 AUDIO
    TITLE "0:"
    INDEX 01 00:57:19
  TRACK 28 AUDIO
    TITLE "5:cjc129_2054"
    INDEX 01 00:58:48
  TRACK 29 AUDIO
    TITLE "0:"
    INDEX 01 01:00:55
  TRACK 30 AUDIO
    TITLE "4:cjc129_2055"
    INDEX 01 01:01:46
  TRACK 31 AUDIO
    TITLE "0:"
    INDEX 01 01:02:57
  TRACK 32 AUDIO
    TITLE "6:cjc129_2056"
    INDEX 01 01:03:14
  TRACK 33 AUDIO
    TITLE "0:"
    INDEX 01 01:07:39
  TRACK 34 AUDIO
    TITLE "2:cjc129_2057"
    INDEX 01 01:09:14
  TRACK 35 AUDIO
    TITLE "0:"
    INDEX 01 01:13:30
  TRACK 36 AUDIO
    TITLE "3:cjc129_2058"
    INDEX 01 01:14:43
  TRACK 37 AUDIO
    TITLE "0:"
    INDEX 01 01:15:52
  TRACK 38 AUDIO
    TITLE "5:cjc129_2059"
    INDEX 01 01:16:09
  TRACK 39 AUDIO
    TITLE "0:"
    INDEX 01 01:17:63
  TRACK 40 AUDIO
    TITLE "4:cjc129_2060"
    INDEX 01 01:18:54
  TRACK 41 AUDIO
    TITLE "0:"
    INDEX 01 01:19:64
  TRACK 42 AUDIO
    TITLE "6:cjc129_2061"
    INDEX 01 01:20:20
  TRACK 43 AUDIO
    TITLE "0:"
    INDEX 01 01:24:30
  TRACK 44 AUDIO
    TITLE "3:cjc129_2062"
    INDEX 01 01:26:05
  TRACK 45 AUDIO
    TITLE "0:"
    INDEX 01 01:27:30
  TRACK 46 AUDIO
    TITLE "5:cjc129_2063"
    INDEX 01 01:27:63
  TRACK 47 AUDIO
    TITLE "0:"
    INDEX 01 01:31:69
  TRACK 48 AUDIO
    TITLE "4:cjc129_2064"
    INDEX 01 01:32:62
  TRACK 49 AUDIO
    TITLE "0:"
    INDEX 01 01:34:12
  TRACK 50 AUDIO
    TITLE "6:cjc129_2065"
    INDEX 01 01:34:44
  TRACK 51 AUDIO
    TITLE "0:"
    INDEX 01 01:37:64
  TRACK 52 AUDIO
    TITLE "3:cjc129_2066"
    INDEX 01 01:39:37
  TRACK 53 AUDIO
    TITLE "0:"
    INDEX 01 01:40:66
  TRACK 54 AUDIO
    TITLE "5:cjc129_2067"
    INDEX 01 01:41:20
  TRACK 55 AUDIO
    TITLE "0:"
    INDEX 01 01:43:27
  TRACK 56 AUDIO
    TITLE "4:cjc129_2068"
    INDEX 01 01:44:21
  TRACK 57 AUDIO
    TITLE "0:"
    INDEX 01 01:45:47
  TRACK 58 AUDIO
    TITLE "6:cjc129_2069"
    INDEX 01 01:46:04
  TRACK 59 AUDIO
    TITLE "0:"
    INDEX 01 01:50:54
  TRACK 60 AUDIO
    TITLE "3:cjc129_2070"
    INDEX 01 01:52:28
  TRACK 61 AUDIO
    TITLE "0:"
    INDEX 01 01:53:39
  TRACK 62 AUDIO
    TITLE "5:cjc129_2071"
    INDEX 01 01:53:72
  TRACK 63 AUDIO
    TITLE "0:"
    INDEX 01 01:59:36
  TRACK 64 AUDIO
    TITLE "4:cjc129_2072"
    INDEX 01 02:00:27
  TRACK 65 AUDIO
    TITLE "0:"
    INDEX 01 02:01:39
  TRACK 66 AUDIO
    TITLE "6:cjc129_2073"
    INDEX 01 02:01:70
  TRACK 67 AUDIO
    TITLE "0:"
    INDEX 01 02:06:28
